<?xml version="1.0" encoding="UTF-8"?>
<svg id="Capa_2" data-name="Capa 2" xmlns="http://www.w3.org/2000/svg" viewBox="0 0 16.31 16.31">
  <defs>
    <style>
      .cls-1 {
        stroke-width: 0px;
      }
    </style>
  </defs>
  <g id="Otros">
    <path class="cls-1" d="M16.31,8.17c0,4.51-3.66,8.15-8.18,8.14C3.65,16.3-.03,12.65,0,8.1.03,3.61,3.69-.03,8.21,0c4.5.03,8.12,3.69,8.11,8.16ZM7.07,8.04s.03-.02.05-.03c.84-.55.79-1.77.12-2.33-.41-.34-.89-.47-1.42-.47-.75,0-1.49,0-2.24,0-.08,0-.11.02-.11.11,0,1.9,0,3.8,0,5.71,0,.08.02.11.11.11.78,0,1.56,0,2.34,0,.38,0,.74-.08,1.08-.25.9-.46,1.16-1.59.53-2.39-.13-.16-.3-.29-.46-.44ZM9.4,9.1h.15c1.05,0,2.09,0,3.14,0,.09,0,.13-.03.13-.12,0-.2.02-.4,0-.6-.05-.67-.33-1.22-.89-1.6-.47-.32-1-.42-1.56-.36-.89.1-1.52.55-1.83,1.41-.2.55-.2,1.12-.03,1.68.17.57.51,1,1.03,1.28.46.25.96.31,1.48.24.8-.11,1.35-.54,1.66-1.28.02-.04.02-.08.04-.12-.02,0-.03-.01-.04-.01-.31,0-.62,0-.93,0-.03,0-.07.03-.09.06-.08.1-.15.21-.24.3-.37.33-1.03.35-1.47.06-.32-.22-.49-.53-.53-.93ZM9.24,5.28c0,.19,0,.37,0,.54,0,.09.03.11.11.11.44,0,.88,0,1.32,0,.41,0,.81,0,1.22,0,.09,0,.11-.03.11-.11,0-.14,0-.29,0-.43,0-.1-.03-.12-.12-.12-.84,0-1.68,0-2.52,0-.03,0-.07,0-.12,0ZM4.78,10.06c.36,0,.72,0,1.08,0,.09,0,.18-.01.27-.04.28-.08.47-.24.5-.54.04-.3-.04-.56-.31-.74-.16-.1-.35-.14-.54-.14-.33,0-.66,0-.99,0-.08,0-.1.03-.1.11,0,.42,0,.83,0,1.25,0,.03,0,.06,0,.09.03,0,.05,0,.07,0ZM4.7,6.29c0,.4,0,.8,0,1.2,0,.07.04.07.09.07.28,0,.55,0,.83,0,.12,0,.25,0,.37-.03.43-.09.63-.47.47-.87-.1-.27-.33-.38-.6-.39-.37-.02-.75,0-1.12-.01,0,0-.02,0-.03.01,0,.01,0,.02,0,.03ZM11.82,8.3c.03-.55-.47-1.03-1.12-1.07-.74-.04-1.22.48-1.28,1.07h2.4Z"/>
  </g>
</svg>