<?xml version="1.0" encoding="UTF-8"?>
<svg id="Capa_2" data-name="Capa 2" xmlns="http://www.w3.org/2000/svg" viewBox="0 0 16.3 16.29">
  <defs>
    <style>
      .cls-1 {
        stroke-width: 0px;
      }
    </style>
  </defs>
  <g id="Otros">
    <path class="cls-1" d="M8.14,16.29C3.65,16.29,0,12.64,0,8.16,0,3.65,3.69-.09,8.33,0c4.41.09,7.99,3.71,7.97,8.19-.01,4.47-3.66,8.1-8.15,8.1ZM4.24,6.09c0,.07-.01.11-.01.15,0,1.38,0,2.76,0,4.14,0,.42.22.63.65.63,2.18,0,4.36,0,6.54,0,.43,0,.64-.22.65-.65,0-1.37,0-2.73,0-4.1,0-.05,0-.09,0-.15-.04.02-.07.03-.09.05-1.1.78-2.2,1.56-3.29,2.35-.18.13-.38.19-.6.17-.23-.01-.4-.15-.58-.28-.93-.67-1.87-1.33-2.81-1.99-.14-.1-.28-.2-.44-.31ZM4.59,5.47s0,.02,0,.03c.07.05.14.1.21.15,1.04.74,2.08,1.47,3.12,2.21.17.12.31.12.48,0,.08-.06.16-.13.25-.19.94-.66,1.88-1.32,2.81-1.98.09-.06.17-.12.26-.19-.08-.04-.16-.07-.24-.07-2.21,0-4.42,0-6.63,0-.08,0-.17.02-.25.03Z"/>
  </g>
</svg>